<?xml version="1.0" encoding="utf-8"?>
<!-- Generator: Adobe Illustrator 26.0.3, SVG Export Plug-In . SVG Version: 6.00 Build 0)  -->
<svg version="1.1" id="Layer_1" xmlns="http://www.w3.org/2000/svg" xmlns:xlink="http://www.w3.org/1999/xlink" x="0px" y="0px"
	 viewBox="0 0 1434 272.3" style="enable-background:new 0 0 1434 272.3;" xml:space="preserve">
<style type="text/css">
	.st0{fill:#FFFFFF;}
	.st1{fill:#00F5A3;}
</style>
<g>
	<g>
		<path class="st0" d="M111,159.5l22.2,12c-6.7,9.4-15.2,16.9-25.6,22.5c-10.3,5.6-21.5,8.4-33.6,8.4c-13.6,0-26.1-3.5-37.3-10.5
			s-20.1-16.4-26.8-28.2s-10-24.9-10-39.2c0-10.9,1.9-21,5.8-30.4s9.2-17.7,15.9-24.9c6.8-7.2,14.6-12.8,23.6-16.8
			s18.6-6.1,28.7-6.1c12,0,23.2,2.8,33.6,8.4c10.3,5.6,18.8,13.2,25.6,22.7l-22.2,12c-4.7-5.8-10.4-10.3-16.9-13.5s-13.2-4.7-20-4.7
			c-9.2,0-17.5,2.4-25,7.3C41.7,83.4,35.8,89.9,31.4,98c-4.3,8.1-6.5,16.9-6.5,26.5s2.2,18.4,6.6,26.4c4.4,8.1,10.3,14.5,17.8,19.3
			s15.7,7.3,24.8,7.3c7.3,0,14.2-1.7,20.6-5S106.5,164.8,111,159.5z"/>
		<path class="st0" d="M268.1,50.5H293v148.1h-24.9l-1-25c-4.6,8.6-11,15.6-19.2,20.9c-8.1,5.3-17.9,8-29.1,8
			c-10.9,0-21-2.1-30.5-6.1c-9.5-4.1-17.9-9.8-25.1-17c-7.3-7.3-12.9-15.6-17-25.1s-6.1-19.7-6.1-30.7c0-10.6,2-20.5,5.9-29.9
			s9.5-17.6,16.5-24.7c7.1-7.1,15.2-12.6,24.5-16.6s19.3-6,29.9-6c11.7,0,21.9,2.7,30.7,8.2c8.8,5.5,15.9,12.6,21.3,21.3L268.1,50.5
			z M218.3,178.3c9.8,0,18.2-2.4,25.4-7.2s12.7-11.3,16.6-19.5s5.9-17.2,5.9-27.1c0-10.1-2-19.2-5.9-27.3c-4-8.1-9.5-14.6-16.7-19.4
			s-15.6-7.2-25.3-7.2c-9.8,0-18.7,2.4-26.7,7.3c-8,4.8-14.3,11.3-19,19.5c-4.7,8.1-7,17.2-7,27.2s2.4,19,7.3,27.2
			c4.8,8.1,11.3,14.6,19.3,19.4C200.1,175.9,208.8,178.3,218.3,178.3z"/>
		<path class="st0" d="M390.7,46.3c14.4,0,27.5,3.5,39.3,10.5s21.2,16.4,28.2,28.2s10.5,24.9,10.5,39.3c0,10.8-2,20.9-6.1,30.3
			c-4.1,9.4-9.7,17.7-16.8,24.9c-7.2,7.2-15.5,12.8-24.9,16.8s-19.5,6.1-30.3,6.1c-11.5,0-21.4-2.7-29.9-8.1
			c-8.4-5.4-15.2-12.4-20.2-21.1v25.3h-24.9V0.4h24.9v75c5-8.7,11.8-15.7,20.2-21.1C369.3,49,379.2,46.3,390.7,46.3z M390.4,178.2
			c9.8,0,18.7-2.4,26.7-7.3c8-4.8,14.4-11.3,19.1-19.5c4.7-8.1,7.1-17.2,7.1-27c0-10.1-2.4-19.2-7.3-27.3
			c-4.8-8.1-11.3-14.6-19.3-19.4s-16.8-7.2-26.4-7.2c-9.7,0-18.1,2.4-25.3,7.3c-7.2,4.8-12.7,11.4-16.6,19.6s-5.9,17.2-5.9,27.1
			c0,10,1.9,19,5.9,27.2c3.9,8.1,9.5,14.6,16.7,19.4C372.4,175.8,380.8,178.2,390.4,178.2z"/>
	</g>
	<g>
		<path class="st0" d="M685.3,202.5c-13.6,0-26.1-3.5-37.3-10.5s-20.1-16.4-26.8-28.2s-10-24.9-10-39.2c0-10.9,1.9-21,5.8-30.4
			c3.9-9.4,9.2-17.7,15.9-24.9c6.8-7.2,14.6-12.8,23.6-16.8s18.6-6.1,28.7-6.1c11.2,0,21.4,2.2,30.7,6.7s17.3,10.7,24,18.7
			s11.7,17.3,15,27.9s4.5,21.9,3.6,33.9H637.6c1.2,8.4,3.9,15.9,8.3,22.4c4.3,6.6,9.9,11.8,16.7,15.6c6.8,3.9,14.3,5.8,22.6,5.9
			c8.9,0,16.9-2.3,24.1-6.9c7.2-4.6,13-10.9,17.5-18.9l25.3,5.9c-5.9,13.1-14.9,23.9-26.8,32.2C713.5,198.3,700.1,202.5,685.3,202.5
			z M637,114h96.6c-0.8-8.3-3.5-15.9-8-22.7c-4.5-6.9-10.3-12.4-17.3-16.5s-14.7-6.2-23-6.2s-15.9,2-22.8,6.1
			c-6.9,4.1-12.6,9.5-17.1,16.4C640.9,97.8,638.1,105.5,637,114z"/>
		<path class="st0" d="M905.1,106.5v92.1h-24.9v-86.7c0-7.5-1.8-14.3-5.5-20.4s-8.5-11-14.7-14.6c-6.1-3.6-12.9-5.4-20.4-5.4
			c-7.4,0-14.2,1.8-20.4,5.4s-11.1,8.5-14.7,14.6c-3.7,6.1-5.5,12.9-5.5,20.4v86.7h-24.9V50.5H799V69c5.2-6.9,11.9-12.4,19.9-16.5
			s16.7-6.1,26.1-6.1c11.1,0,21.2,2.7,30.3,8.1s16.4,12.6,21.8,21.7C902.4,85.2,905.1,95.3,905.1,106.5z"/>
		<path class="st0" d="M1044.8,50.1h24.9V203c0,9.8-2.1,18.9-6.3,27.3c-4.2,8.4-9.9,15.8-17,22.1s-15.2,11.2-24.3,14.7
			c-9.1,3.5-18.6,5.3-28.4,5.3c-10.3,0-20.2-2.3-29.8-6.9s-18-10.7-25.1-18.4c-7.2-7.7-12.3-16.2-15.5-25.7l22.8-10.4
			c1.9,6.8,5.3,13,10.1,18.4c4.9,5.5,10.6,9.8,17.2,13c6.6,3.2,13.3,4.8,20.2,4.8c6.5,0,12.8-1.1,18.9-3.4
			c6.1-2.3,11.6-5.4,16.4-9.4c4.9-4,8.7-8.7,11.6-14.1c2.8-5.4,4.2-11.2,4.2-17.4v-29.5c-5,8.5-11.7,15.4-19.9,20.7
			c-8.2,5.3-17.9,7.9-28.8,7.9c-10.5,0-20.3-2-29.5-6.1c-9.2-4-17.2-9.7-24.1-16.8c-6.9-7.2-12.3-15.4-16.3-24.8
			c-4-9.4-5.9-19.5-5.9-30.2c0-10.8,2-20.9,5.9-30.3s9.4-17.7,16.3-24.9c6.9-7.2,15-12.8,24.1-16.8c9.2-4,19-6.1,29.5-6.1
			c11,0,20.6,2.6,28.8,7.9c8.2,5.2,14.9,12.1,19.9,20.7V50.1H1044.8z M996.2,177.9c9.6,0,17.9-2.5,25-7.4
			c7.1-4.9,12.5-11.5,16.4-19.7s5.8-17.1,5.8-26.7c0-9.9-2-18.9-5.9-27s-9.4-14.7-16.4-19.6c-7.1-4.9-15.3-7.3-24.8-7.3
			c-9.3,0-17.8,2.4-25.5,7.3c-7.7,4.8-13.8,11.3-18.3,19.5c-4.5,8.1-6.7,17.2-6.7,27.2s2.3,19,6.9,27.2c4.6,8.1,10.7,14.6,18.4,19.4
			C978.6,175.5,987,177.9,996.2,177.9z"/>
		<path class="st0" d="M1092.4,50.1h24.9v148.1h-24.9V50.1z M1117.4,24.9h-24.9V0h24.9V24.9z"/>
		<path class="st0" d="M1271.1,106.1v92.1h-24.9v-86.7c0-7.5-1.8-14.3-5.5-20.4s-8.5-11-14.7-14.6c-6.1-3.6-12.9-5.4-20.4-5.4
			c-7.4,0-14.2,1.8-20.4,5.4c-6.2,3.6-11.1,8.5-14.7,14.6c-3.7,6.1-5.5,12.9-5.5,20.4v86.7h-24.9V50.1h24.9v18.5
			c5.2-6.9,11.9-12.4,19.9-16.5s16.7-6.1,26.1-6.1c11.1,0,21.2,2.7,30.3,8.1c9.1,5.4,16.4,12.6,21.8,21.7
			C1268.4,84.8,1271.1,94.9,1271.1,106.1z"/>
		<path class="st0" d="M1360.4,202.1c-13.6,0-26.1-3.5-37.3-10.5c-11.2-7-20.1-16.4-26.8-28.2c-6.7-11.8-10-24.9-10-39.2
			c0-10.9,1.9-21,5.8-30.4s9.2-17.7,15.9-24.9c6.8-7.2,14.6-12.8,23.6-16.8s18.6-6.1,28.7-6.1c11.2,0,21.4,2.2,30.7,6.7
			c9.3,4.5,17.3,10.7,24,18.7s11.7,17.3,15,27.9s4.5,21.9,3.6,33.9h-120.9c1.2,8.4,3.9,15.9,8.3,22.4c4.3,6.6,9.9,11.8,16.7,15.6
			c6.8,3.9,14.3,5.8,22.6,5.9c8.9,0,16.9-2.3,24.1-6.9c7.2-4.6,13-10.9,17.5-18.9l25.3,5.9c-5.9,13.1-14.9,23.9-26.8,32.2
			C1388.5,197.9,1375.2,202.1,1360.4,202.1z M1312.1,113.6h96.6c-0.8-8.3-3.5-15.9-8-22.7c-4.5-6.9-10.3-12.4-17.3-16.5
			s-14.7-6.2-23-6.2s-15.9,2-22.8,6.1s-12.6,9.5-17.1,16.4C1315.9,97.5,1313.1,105.2,1312.1,113.6z"/>
	</g>
	<g>
		<rect x="528" y="85.1" class="st1" width="24.9" height="24.9"/>
		<rect x="552.9" y="110" class="st1" width="24.9" height="24.9"/>
		<rect x="503.1" y="110" class="st1" width="24.9" height="24.9"/>
		<rect x="528" y="134.9" class="st1" width="24.9" height="24.9"/>
	</g>
</g>
</svg>
