<svg width="211" height="40" viewBox="0 0 211 40" fill="none" xmlns="http://www.w3.org/2000/svg">
<path d="M99.6878 33.3306C97.8668 33.3182 96.2171 32.8873 94.745 32.038C92.9684 31.0076 91.7945 29.5275 91.2171 27.5978L94.377 26.7111C94.7196 27.8539 95.4366 28.7282 96.528 29.3339C97.4417 29.8273 98.5076 30.0833 99.7068 30.0958C99.8528 30.0958 100.011 30.0896 100.189 30.0771C100.367 30.0646 100.557 30.0396 100.76 30.0146C101.261 29.9272 101.712 29.796 102.112 29.6149C103.241 29.0779 103.869 28.1786 103.983 26.9047C104.028 26.2677 103.831 25.7119 103.406 25.231C102.689 24.4005 101.509 23.9321 99.8591 23.8322C96.566 23.6199 94.2057 22.808 92.7907 21.3967C92.2324 20.8471 91.8326 20.2164 91.5852 19.517C91.4012 18.9674 91.306 18.3804 91.306 17.7622C91.306 15.7014 92.1245 14.0465 93.7552 12.7912C95.2336 11.6609 97.0229 11.0989 99.1294 11.0989C101.61 11.0989 103.679 11.9669 105.341 13.703C105.874 14.2525 106.331 14.8645 106.718 15.5452L107.169 16.4757L104.098 17.6185L103.799 17.0502C103.558 16.6443 103.279 16.2696 102.962 15.9262C101.915 14.8708 100.621 14.34 99.0723 14.34C98.7868 14.3525 98.5393 14.3774 98.3427 14.4024C97.8287 14.4711 97.3338 14.6023 96.8579 14.7834C95.3541 15.3641 94.5991 16.3571 94.5991 17.7684C94.5991 18.6989 95.2018 19.4108 96.4074 19.9042C97.3211 20.2726 98.552 20.5037 100.081 20.6036C101.515 20.7035 102.765 21.022 103.844 21.5528C104.662 21.965 105.348 22.4833 105.906 23.1203C106.94 24.2881 107.391 25.637 107.257 27.1607C107.099 29.1653 106.242 30.7203 104.681 31.8381C103.304 32.8373 101.648 33.3431 99.7195 33.3431H99.6878V33.3306Z" fill="#F4F6F8"/>
<path d="M109.11 5.54712H112.397V11.0801H116.267V14.2962L112.435 14.3212L112.397 25.9679C112.397 27.0233 112.771 27.9288 113.514 28.6782C114.275 29.4275 115.189 29.8022 116.267 29.8022V33.0371C114.288 33.0371 112.6 32.3439 111.198 30.9638C109.808 29.5837 109.11 27.9163 109.11 25.9741V5.54712Z" fill="#F4F6F8"/>
<path d="M118.196 11.0801H121.458L121.483 24.4066C121.483 25.9741 122.048 27.3105 123.183 28.4283C124.313 29.5399 125.677 30.102 127.27 30.102C128.862 30.102 130.22 29.5462 131.356 28.4283C132.485 27.3168 133.056 25.9741 133.056 24.4066V11.0801H136.343V33.0371H133.056V31.2823C131.381 32.6499 129.452 33.3368 127.276 33.3368C124.782 33.3368 122.65 32.4625 120.874 30.714C119.097 28.9654 118.209 26.8671 118.209 24.4129L118.196 11.0801Z" fill="#F4F6F8"/>
<path d="M150.061 33.3556C146.939 33.3556 144.274 32.2627 142.066 30.077C139.858 27.9038 138.754 25.2872 138.754 22.2272C138.754 19.1672 139.858 16.5506 142.066 14.3774C144.274 12.1917 146.939 11.0988 150.061 11.0988C153.183 11.0988 155.848 12.1979 158.056 14.3961V5.54089H161.343V33.0308H158.056V30.0458C155.848 32.2565 153.183 33.3556 150.061 33.3556ZM150.061 14.3587C147.853 14.3587 145.962 15.1268 144.389 16.663C142.828 18.1993 142.047 20.054 142.047 22.2272C142.047 24.4004 142.828 26.2552 144.389 27.7914C145.962 29.3276 147.853 30.0958 150.061 30.0958C152.269 30.0958 154.154 29.3276 155.715 27.7914C157.275 26.2552 158.056 24.4004 158.056 22.2272C158.056 20.054 157.275 18.1993 155.715 16.663C154.154 15.1268 152.269 14.3587 150.061 14.3587Z" fill="#F4F6F8"/>
<path d="M164.623 11.0801H167.91V33.0371H164.623V11.0801Z" fill="#F4F6F8"/>
<path d="M173.62 30.0771C171.412 27.9038 170.308 25.281 170.308 22.2085C170.308 19.1485 171.412 16.5319 173.62 14.3587C175.828 12.1855 178.493 11.0989 181.615 11.0989C184.724 11.0989 187.383 12.1855 189.591 14.3587C191.799 16.5319 192.903 19.1485 192.903 22.2085C192.903 25.281 191.799 27.9038 189.591 30.0771C187.383 32.2503 184.724 33.3369 181.615 33.3369C178.493 33.3306 175.828 32.244 173.62 30.0771ZM175.968 16.6443C174.394 18.1806 173.601 20.0353 173.601 22.2085C173.601 24.3817 174.388 26.2427 175.968 27.7914C177.529 29.3277 179.413 30.0958 181.621 30.0958C183.83 30.0958 185.714 29.3277 187.275 27.7914C188.836 26.2427 189.616 24.3817 189.616 22.2085C189.616 20.0353 188.836 18.1806 187.275 16.6443C185.714 15.1081 183.83 14.34 181.621 14.34C179.413 14.3337 177.529 15.1081 175.968 16.6443Z" fill="#F4F6F8"/>
<path d="M203.125 33.3306C201.304 33.3182 199.654 32.8873 198.182 32.038C196.405 31.0076 195.232 29.5275 194.654 27.5978L197.814 26.7111C198.157 27.8539 198.874 28.7282 199.965 29.3339C200.879 29.8273 201.945 30.0833 203.144 30.0958C203.29 30.0958 203.448 30.0896 203.626 30.0771C203.804 30.0646 203.994 30.0396 204.197 30.0146C204.698 29.9272 205.149 29.796 205.549 29.6149C206.678 29.0779 207.306 28.1786 207.42 26.9047C207.465 26.2677 207.268 25.7119 206.843 25.231C206.126 24.4005 204.946 23.9321 203.296 23.8322C200.003 23.6199 197.643 22.808 196.228 21.3967C195.669 20.8471 195.27 20.2164 195.022 19.517C194.838 18.9674 194.743 18.3804 194.743 17.7622C194.743 15.7014 195.561 14.0465 197.192 12.7912C198.671 11.6609 200.46 11.0989 202.566 11.0989C205.047 11.0989 207.116 11.9669 208.778 13.703C209.311 14.2525 209.768 14.8645 210.155 15.5452L210.606 16.4757L207.535 17.6185L207.236 17.0502C206.995 16.6443 206.716 16.2696 206.399 15.9262C205.352 14.8708 204.058 14.34 202.509 14.34C202.224 14.3525 201.976 14.3774 201.78 14.4024C201.266 14.4711 200.771 14.6023 200.295 14.7834C198.791 15.3641 198.036 16.3571 198.036 17.7684C198.036 18.6989 198.639 19.4108 199.844 19.9042C200.758 20.2726 201.989 20.5037 203.518 20.6036C204.952 20.7035 206.202 21.022 207.281 21.5528C208.099 21.965 208.785 22.4833 209.343 23.1203C210.377 24.2881 210.828 25.637 210.694 27.1607C210.536 29.1653 209.679 30.7203 208.118 31.8381C206.741 32.8373 205.085 33.3431 203.157 33.3431H203.125V33.3306Z" fill="#F4F6F8"/>
<path d="M168.581 7.174L166.257 4.86731L163.952 7.15469L166.276 9.46139L168.581 7.174Z" fill="#FEDC04"/>
<path fill-rule="evenodd" clip-rule="evenodd" d="M0.282715 0.419922H74.9008V40H0.282715V0.419922ZM9.99577 12.5225C8.30105 13.4842 6.95413 14.8269 5.96766 16.5442C4.97486 18.2616 4.48162 20.2037 4.4753 22.3707C4.4753 24.5252 4.97486 26.4673 5.96133 28.1847C6.94781 29.902 8.29473 31.2447 10.0084 32.2064C11.7221 33.1681 13.6065 33.6489 15.6743 33.6489C18.5073 33.6489 20.8217 32.8933 22.605 31.3758C24.3882 29.8583 25.5328 27.9099 26.0323 25.5181L22.7125 24.775C22.4153 26.5548 21.6817 27.9786 20.4992 29.059C19.3167 30.1393 17.7232 30.6764 15.7186 30.6764C14.2452 30.6764 12.9173 30.3267 11.7348 29.6272C10.5522 28.9216 9.62268 27.9411 8.94606 26.6734C8.26944 25.4057 7.92796 23.9694 7.92796 22.3644C7.92796 20.7595 8.26944 19.3232 8.94606 18.0555C9.629 16.7878 10.5522 15.8011 11.7158 15.1016C12.8856 14.4022 14.2073 14.0525 15.6807 14.0525C17.6283 14.0525 19.2092 14.5896 20.417 15.6699C21.6248 16.7503 22.352 18.1616 22.586 19.9102L25.9059 19.2108C25.6403 17.6995 25.0648 16.3194 24.1795 15.0829C23.3006 13.8464 22.1244 12.866 20.6636 12.1541C19.2029 11.4359 17.5335 11.0799 15.6427 11.0799C13.5749 11.0799 11.6905 11.5608 9.99577 12.5225ZM31.1292 12.8723C32.6911 11.6796 34.7589 11.0801 37.3263 11.0801C40.0707 11.0801 42.2144 11.7857 43.77 13.2033C45.3193 14.6147 46.0908 16.5756 46.0908 19.086V33.0308H42.8152V29.9708H42.3283C40.9434 32.4188 38.5784 33.6428 35.2459 33.6428C32.9125 33.6428 31.0027 33.0558 29.5167 31.8755C28.0243 30.6952 27.2782 29.0528 27.2782 26.9545C27.2782 24.8563 28.0243 23.2513 29.5167 22.146C31.0091 21.0406 32.9504 20.4848 35.3407 20.4848H42.733V18.9049C42.733 17.3312 42.2777 16.1072 41.3607 15.2329C40.4438 14.3586 39.1032 13.9215 37.3326 13.9215C35.6189 13.9215 34.2467 14.3399 33.216 15.1642C32.1852 15.9948 31.4897 17.1251 31.1355 18.5552L27.9485 17.5935C28.5049 15.6388 29.5673 14.0651 31.1292 12.8723ZM32.0398 29.771C32.9694 30.4829 34.2025 30.8389 35.7328 30.8389C37.8259 30.8389 39.5206 30.2019 40.8043 28.9404C42.088 27.6727 42.7266 25.9491 42.7266 23.7634V23.2388H35.4672C34.0191 23.2388 32.8555 23.5573 31.9702 24.2006C31.0849 24.8438 30.6423 25.743 30.6423 26.9108C30.6423 28.0974 31.1102 29.0528 32.0398 29.771ZM52.4648 15.2329H52.0222V5.54086H48.6138V33.0183H51.9337V29.3026H52.3763C54.09 32.1878 56.8028 33.6303 60.5211 33.6303C62.4118 33.6303 64.1381 33.162 65.7001 32.2315C67.2683 31.2947 68.5014 29.9771 69.3994 28.2722C70.2973 26.5674 70.7463 24.594 70.7463 22.3521C70.7463 20.1102 70.2973 18.1368 69.3994 16.4319C68.4951 14.7271 67.262 13.4094 65.7001 12.4789C64.1381 11.5484 62.4118 11.0801 60.5211 11.0801C56.8344 11.0801 54.1469 12.4664 52.4648 15.2329ZM52.9707 17.9682C53.6347 16.7005 54.5516 15.7263 55.7152 15.0393C56.885 14.3524 58.2066 14.0089 59.68 14.0152C61.9565 14.0152 63.7904 14.7645 65.1942 16.2633C66.5917 17.7683 67.2936 19.7979 67.2936 22.3646C67.2936 24.9312 66.598 26.9545 65.1942 28.4408C63.7904 29.9271 61.9502 30.6703 59.68 30.6703C57.4099 30.6703 55.5571 29.9209 54.1279 28.4221C52.6925 26.9171 51.9779 24.9 51.9779 22.3646C51.9779 20.7034 52.3068 19.2359 52.9707 17.9682Z" fill="#F4F6F8"/>
<rect x="84.1249" y="39.9055" width="4.81111" height="4.51042" transform="rotate(180 84.1249 39.9055)" fill="#F4F6F8"/>
<rect x="84.1249" y="30.8845" width="4.81111" height="3.90903" transform="rotate(180 84.1249 30.8845)" fill="#F4F6F8"/>
<rect x="79.3138" y="35.395" width="4.51042" height="3.90903" transform="rotate(180 79.3138 35.395)" fill="#F4F6F8"/>
<rect x="84.1249" y="22.4652" width="4.81111" height="4.51042" transform="rotate(180 84.1249 22.4652)" fill="#F4F6F8"/>
<rect x="79.3138" y="26.9756" width="4.51042" height="4.51042" transform="rotate(180 79.3138 26.9756)" fill="#F4F6F8"/>
<rect x="84.1249" y="13.4443" width="4.81111" height="3.90903" transform="rotate(180 84.1249 13.4443)" fill="#F4F6F8"/>
<rect x="79.3138" y="17.9546" width="4.51042" height="3.90903" transform="rotate(180 79.3138 17.9546)" fill="#F4F6F8"/>
<rect x="84.1249" y="5.02478" width="4.81111" height="4.51042" transform="rotate(180 84.1249 5.02478)" fill="#F4F6F8"/>
<rect x="79.3138" y="9.53528" width="4.51042" height="4.51042" transform="rotate(180 79.3138 9.53528)" fill="#F4F6F8"/>
</svg>
